<?xml version="1.0" standalone="no"?>
<!DOCTYPE svg PUBLIC "-//W3C//DTD SVG 20010904//EN"
 "http://www.w3.org/TR/2001/REC-SVG-20010904/DTD/svg10.dtd">
<svg version="1.0" xmlns="http://www.w3.org/2000/svg"
 width="1654.000000pt" height="1654.000000pt" viewBox="0 0 1654.000000 1654.000000"
 preserveAspectRatio="xMidYMid meet">
<metadata>
Created by potrace 1.16, written by Peter Selinger 2001-2019
</metadata>
<g transform="translate(0.000000,1654.000000) scale(0.100000,-0.100000)"
fill="#000000" stroke="none">
<path d="M0 8270 l0 -8270 8270 0 8270 0 0 8270 0 8270 -8270 0 -8270 0 0
-8270z m2724 6752 c3 -5 8 -304 12 -665 6 -527 5 -659 -6 -672 -11 -13 -90
-15 -676 -15 l-664 0 0 -5328 0 -5329 368 -6 c202 -4 501 -7 664 -7 163 0 299
-4 302 -8 3 -5 8 -312 12 -683 7 -623 6 -675 -10 -688 -14 -12 -224 -13 -1344
-9 -730 2 -1333 8 -1340 12 -9 6 -12 1508 -12 6700 0 3681 3 6696 7 6699 9 10
2681 8 2687 -1z m13371 -6702 l0 -6705 -990 -2 c-544 -2 -1150 1 -1345 5
l-355 7 0 685 0 685 670 5 670 5 3 4830 c2 2657 0 5056 -4 5333 l-6 502 -293
0 c-160 0 -461 3 -668 7 l-377 6 0 667 c0 367 3 670 7 673 3 4 610 6 1347 5
l1341 -3 0 -6705z m-2976 4463 c9 -16 11 -16 28 -1 17 16 20 15 42 -8 23 -24
23 -25 5 -39 -18 -13 -17 -16 29 -59 26 -25 47 -54 47 -63 0 -10 12 -29 25
-42 25 -23 26 -23 45 -6 17 15 20 16 25 3 4 -9 5 -37 3 -64 -3 -45 -5 -49 -31
-52 -16 -2 -31 -10 -34 -18 -3 -8 -15 -14 -27 -14 -14 0 -50 -29 -101 -80 -44
-44 -86 -80 -95 -80 -8 0 -56 -40 -105 -90 -49 -49 -97 -90 -105 -90 -9 0 -40
-25 -70 -55 l-55 -56 4 -469 c2 -362 0 -474 -9 -485 -11 -13 -92 -15 -584 -15
l-573 0 -23 -25 c-13 -14 -31 -25 -39 -25 -9 0 -52 -36 -96 -80 -44 -44 -86
-80 -95 -80 -9 0 -51 -36 -95 -80 -44 -44 -86 -80 -95 -80 -9 0 -51 -36 -95
-80 -44 -44 -87 -80 -97 -80 -10 0 -51 -34 -91 -75 -41 -41 -82 -75 -92 -75
-10 0 -52 -36 -94 -80 -43 -44 -86 -80 -96 -80 -10 0 -59 -42 -111 -95 -51
-52 -100 -95 -109 -95 -10 0 -53 -36 -97 -80 -44 -44 -87 -80 -96 -80 -10 0
-51 -34 -92 -75 -41 -41 -81 -75 -90 -75 -9 0 -51 -36 -95 -80 -44 -44 -86
-80 -95 -80 -9 0 -51 -36 -95 -80 -44 -44 -86 -80 -95 -80 -9 0 -49 -34 -90
-75 -41 -41 -82 -75 -92 -75 -9 0 -52 -36 -96 -80 -44 -44 -88 -80 -98 -80 -9
0 -59 -43 -109 -95 -51 -52 -100 -95 -110 -95 -9 0 -53 -36 -97 -80 -44 -44
-87 -80 -97 -80 -10 0 -25 -8 -34 -18 -15 -16 -17 -71 -19 -518 l-3 -499 -591
0 -592 0 -44 -47 c-24 -27 -52 -48 -62 -48 -9 0 -51 -34 -92 -75 -41 -41 -83
-75 -92 -75 -9 0 -52 -36 -95 -80 -43 -44 -86 -80 -95 -80 -10 0 -53 -36 -97
-80 -44 -44 -86 -80 -95 -80 -9 0 -49 -34 -90 -75 -41 -41 -81 -75 -90 -75 -9
0 -51 -36 -95 -80 -44 -44 -86 -80 -95 -80 -8 0 -58 -43 -110 -95 -52 -52
-102 -95 -112 -95 -10 0 -53 -36 -96 -80 -44 -44 -86 -80 -95 -80 -9 0 -50
-34 -92 -75 -41 -41 -83 -75 -91 -75 -9 0 -51 -36 -95 -80 -43 -44 -87 -80
-96 -80 -10 -1 -54 -37 -98 -80 -44 -44 -87 -80 -95 -80 -9 0 -49 -34 -90 -75
-41 -41 -81 -75 -90 -75 -8 0 -58 -43 -110 -95 -52 -52 -102 -95 -110 -95 -9
0 -51 -36 -95 -80 -44 -44 -86 -80 -95 -80 -9 0 -51 -36 -95 -80 -54 -54 -87
-80 -103 -80 -22 0 -23 -3 -20 -72 l3 -73 1312 -3 1313 -2 2 262 3 263 688 3
c378 1 688 1 689 0 1 -2 5 -120 8 -263 l5 -260 1312 -3 1313 -2 2 262 3 263
679 3 c374 1 683 -1 688 -6 4 -4 10 -303 14 -665 l7 -658 -28 -29 -29 -30
-654 0 c-459 0 -659 3 -674 11 -20 11 -21 17 -17 253 l4 241 -820 3 c-451 2
-1042 0 -1312 -4 l-493 -6 -2 -247 -3 -246 -670 -3 c-368 -1 -680 0 -692 3
l-23 5 0 250 0 250 -938 0 c-516 0 -1108 -3 -1315 -7 l-377 -6 -2 -246 -3
-246 -587 0 -587 0 -63 -62 c-35 -35 -71 -63 -81 -63 -9 0 -49 -34 -88 -75
-40 -41 -80 -75 -89 -75 -23 0 -70 -45 -70 -66 0 -24 -39 -64 -61 -64 -10 0
-36 17 -58 38 -38 36 -39 39 -24 55 16 16 14 20 -37 72 -30 30 -62 55 -72 55
-10 0 -28 10 -39 21 -18 18 -20 25 -10 41 9 15 9 23 1 33 -14 17 -5 35 18 35
10 0 58 41 107 90 49 50 97 90 106 90 8 0 52 36 97 80 44 44 89 80 99 80 10 0
27 10 38 23 19 21 20 43 25 547 l5 525 616 3 c532 2 618 4 629 17 7 8 20 15
30 15 9 0 53 36 97 80 44 44 88 80 97 80 9 0 52 36 95 80 44 44 86 80 95 80 8
0 50 34 91 75 42 41 83 75 92 75 9 0 52 36 95 80 44 44 87 80 97 80 9 0 52 36
96 80 44 44 86 80 95 80 8 0 58 43 110 95 52 52 102 95 110 95 9 0 49 34 90
75 41 41 81 75 90 75 9 0 51 36 95 80 44 44 87 80 97 80 10 0 53 36 95 80 43
44 86 80 95 80 9 0 51 34 92 75 41 41 83 75 91 75 9 0 52 36 95 80 43 44 86
80 95 80 10 0 60 43 112 95 53 52 103 95 112 95 9 0 52 36 96 80 44 44 86 80
95 80 9 0 49 34 90 75 40 41 83 75 94 77 21 3 21 6 26 533 l5 530 621 3 620 2
29 30 c16 17 36 30 45 30 8 0 51 36 95 80 44 44 86 80 95 80 9 0 51 36 95 80
44 44 86 80 95 80 9 0 49 34 90 75 41 41 82 75 92 75 9 0 52 36 96 80 44 44
88 80 97 80 10 0 59 43 110 95 50 52 100 95 110 95 10 0 53 36 96 80 43 44 86
80 96 80 10 0 51 34 90 75 40 41 81 75 90 75 10 0 54 36 98 80 44 44 86 80 95
80 9 0 51 36 95 80 44 44 86 80 95 80 9 0 49 34 90 75 41 41 81 75 90 75 9 0
51 36 95 80 44 44 87 80 96 80 17 0 159 135 186 177 8 13 24 23 34 23 10 0 52
34 93 75 41 41 83 75 92 75 9 0 52 36 96 80 44 44 84 80 89 80 6 0 9 31 7 73
l-3 72 -820 3 c-451 2 -1042 0 -1312 -4 l-493 -6 -2 -247 -3 -246 -670 -3
c-368 -1 -680 0 -692 3 l-23 5 0 250 0 250 -947 0 c-522 0 -1113 -3 -1315 -7
l-368 -6 -2 -246 -3 -246 -145 -3 c-80 -2 -389 0 -687 3 l-543 7 0 153 c0 127
3 154 15 159 13 5 15 66 15 464 0 403 -2 461 -15 472 -11 9 -15 27 -13 54 l3
41 685 0 685 0 3 -247 2 -248 1315 0 1315 0 2 248 3 247 684 3 c541 2 686 0
693 -10 4 -7 8 -120 8 -250 l0 -238 1315 0 1315 0 2 248 3 247 603 3 603 2 60
60 c33 33 67 60 75 60 9 0 51 36 95 80 43 44 87 80 96 80 10 0 52 36 93 79 41
43 78 79 82 80 4 0 11 -7 17 -16z m-8384 -4448 l0 -690 -175 -3 c-96 -2 -406
0 -687 3 l-513 7 0 683 c0 375 3 685 7 688 3 4 313 6 687 5 l681 -3 0 -690z
m8029 686 c3 -4 9 -310 12 -679 6 -570 5 -674 -7 -688 -13 -16 -60 -17 -688
-10 -371 3 -678 9 -682 12 -10 6 -12 1357 -2 1367 10 10 1361 8 1367 -2z"/>
</g>
</svg>
